<mxfile host="app.diagrams.net" modified="2024-07-07T21:38:53.540Z" agent="Mozilla/5.0 (Windows NT 10.0; Win64; x64) AppleWebKit/537.36 (KHTML, like Gecko) Chrome/126.0.0.0 Safari/537.36" version="24.4.8" etag="WZkIgp0SMmhmKconE6hg" type="github">
  <diagram name="Page-1" id="7JBPWDb49MDVxODbEqFo">
    <mxGraphModel>
      <root>
        <mxCell id="0" />
        <mxCell id="1" parent="0" />
      </root>
    </mxGraphModel>
  </diagram>
</mxfile>
